<?xml version="1.0" standalone="no"?>
<!DOCTYPE svg PUBLIC "-//W3C//DTD SVG 20010904//EN"
 "http://www.w3.org/TR/2001/REC-SVG-20010904/DTD/svg10.dtd">
<svg version="1.0" xmlns="http://www.w3.org/2000/svg"
 width="512.000000pt" height="512.000000pt" viewBox="0 0 512.000000 512.000000"
 preserveAspectRatio="xMidYMid meet">

<g transform="translate(0.000000,512.000000) scale(0.100000,-0.100000)"
fill="#000000" stroke="none">
<path d="M2233 4925 c-258 -48 -464 -150 -642 -320 -197 -188 -323 -425 -366
-688 -11 -70 -15 -186 -15 -490 0 -345 -2 -398 -15 -403 -8 -4 -94 22 -191 57
-209 74 -258 79 -348 35 -65 -32 -120 -96 -137 -160 -18 -65 -6 -167 25 -220
42 -71 88 -101 305 -193 113 -48 218 -98 233 -112 49 -45 48 -86 -6 -185 -203
-372 -487 -618 -909 -786 -118 -47 -153 -77 -164 -143 -14 -87 42 -150 202
-227 114 -55 198 -82 339 -109 54 -11 105 -25 112 -33 7 -7 29 -63 48 -123 29
-91 42 -117 73 -147 71 -69 108 -72 345 -27 201 38 302 37 389 -3 30 -14 172
-101 315 -194 299 -194 360 -227 468 -254 115 -29 417 -29 532 0 108 27 169
60 468 254 143 93 285 180 315 194 88 40 188 41 390 3 236 -45 273 -42 344 27
31 30 44 56 73 147 19 60 41 116 48 123 7 8 58 22 112 33 141 27 225 54 339
109 163 79 218 143 201 234 -11 59 -59 98 -171 141 -401 153 -700 412 -901
781 -54 99 -55 140 -6 185 15 14 120 64 233 112 217 92 263 122 305 193 31 53
43 155 25 220 -17 64 -72 128 -137 160 -90 44 -139 39 -348 -35 -97 -35 -183
-61 -191 -57 -13 5 -15 59 -15 408 0 426 -5 486 -51 640 -30 103 -72 192 -100
212 -53 37 -131 10 -148 -51 -8 -29 -6 -47 16 -102 78 -203 83 -244 83 -703 0
-245 4 -406 11 -439 13 -61 64 -123 124 -150 68 -31 118 -25 302 40 221 78
206 75 236 50 30 -23 37 -72 14 -102 -6 -10 -102 -56 -212 -103 -240 -102
-277 -123 -316 -177 -110 -151 -89 -276 94 -552 185 -278 433 -495 730 -638
62 -30 123 -58 137 -64 l25 -10 -40 -20 c-67 -34 -159 -62 -284 -87 -195 -38
-242 -80 -295 -260 -16 -53 -34 -96 -40 -96 -7 0 -86 14 -176 30 -245 45 -368
39 -506 -24 -28 -13 -173 -102 -322 -199 -304 -197 -328 -211 -409 -232 -79
-21 -367 -21 -446 0 -81 21 -105 35 -409 232 -149 97 -294 186 -322 199 -138
63 -261 69 -506 24 -90 -16 -169 -30 -176 -30 -6 0 -24 43 -40 96 -53 180
-100 222 -295 260 -125 25 -217 53 -284 87 l-40 20 25 10 c14 6 75 34 137 64
297 143 545 360 730 638 183 276 204 401 94 552 -39 54 -76 75 -316 177 -110
47 -206 93 -212 103 -23 30 -16 79 14 102 30 25 15 28 236 -50 184 -65 234
-71 302 -40 47 22 98 73 117 116 9 22 14 150 19 485 6 454 6 455 32 548 112
391 421 669 819 738 73 12 144 15 342 12 277 -5 328 -13 496 -83 67 -27 88
-31 114 -24 66 18 97 95 60 148 -34 48 -233 121 -401 146 -126 19 -536 19
-640 0z"/>
<path d="M3460 4603 c-52 -20 -83 -89 -60 -134 27 -53 92 -75 141 -49 24 13
49 61 49 94 0 53 -81 108 -130 89z"/>
<path d="M1581 2136 c-59 -33 -67 -102 -17 -152 42 -42 82 -45 124 -9 93 78
-2 219 -107 161z"/>
<path d="M1402 1834 c-12 -8 -46 -48 -76 -87 -75 -101 -205 -241 -313 -337
-97 -86 -111 -111 -93 -166 13 -39 52 -64 99 -64 66 0 331 257 484 470 37 50
47 73 47 103 0 76 -87 124 -148 81z"/>
</g>
</svg>
